<svg width="64" height="64" viewBox="0 0 64 64" fill="none" xmlns="http://www.w3.org/2000/svg">
<rect x="13.3333" y="18.6666" width="37.3333" height="32" fill="#00F0FF"/>
<path d="M13.3333 56C11.8667 56 10.6111 55.4779 9.56667 54.4333C8.52221 53.3888 8 52.1333 8 50.6667V13.3333C8 11.8667 8.52221 10.6111 9.56667 9.56667C10.6111 8.52221 11.8667 8 13.3333 8H50.6667C52.1333 8 53.3888 8.52221 54.4333 9.56667C55.4779 10.6111 56 11.8667 56 13.3333V50.6667C56 52.1333 55.4779 53.3888 54.4333 54.4333C53.3888 55.4779 52.1333 56 50.6667 56H13.3333ZM13.3333 50.6667H50.6667V18.6667H13.3333V50.6667ZM22.2333 42.3667C19.3667 40.3888 17.2889 37.8221 16 34.6667C17.2889 31.5112 19.3667 28.9445 22.2333 26.9667C25.1 24.9889 28.3555 24 32 24C35.6445 24 38.9 24.9889 41.7667 26.9667C44.6333 28.9445 46.7112 31.5112 48 34.6667C46.7112 37.8221 44.6333 40.3888 41.7667 42.3667C38.9 44.3445 35.6445 45.3333 32 45.3333C28.3555 45.3333 25.1 44.3445 22.2333 42.3667ZM38.8 39.5667C40.8445 38.3888 42.4445 36.7555 43.6 34.6667C42.4445 32.5779 40.8445 30.9445 38.8 29.7667C36.7555 28.5888 34.4888 28 32 28C29.5112 28 27.2445 28.5888 25.2 29.7667C23.1555 30.9445 21.5555 32.5779 20.4 34.6667C21.5555 36.7555 23.1555 38.3888 25.2 39.5667C27.2445 40.7445 29.5112 41.3333 32 41.3333C34.4888 41.3333 36.7555 40.7445 38.8 39.5667ZM34.8333 37.5C35.6112 36.7221 36 35.7779 36 34.6667C36 33.5555 35.6112 32.6112 34.8333 31.8333C34.0555 31.0555 33.1112 30.6667 32 30.6667C30.8888 30.6667 29.9445 31.0555 29.1667 31.8333C28.3888 32.6112 28 33.5555 28 34.6667C28 35.7779 28.3888 36.7221 29.1667 37.5C29.9445 38.2779 30.8888 38.6667 32 38.6667C33.1112 38.6667 34.0555 38.2779 34.8333 37.5Z" fill="#030507"/>
</svg>
